<svg xmlns="http://www.w3.org/2000/svg" viewBox="0 0 1200 760" role="img" aria-label="Impresión UV DTF sobre film y producto">
  <defs>
    <linearGradient id="bg" x1="0" y1="0" x2="1" y2="1"><stop stop-color="#060402"/><stop offset="1" stop-color="#24100a"/></linearGradient>
    <linearGradient id="film" x1="0" y1="0" x2="1" y2="0"><stop stop-color="#fff" stop-opacity=".12"/><stop offset=".45" stop-color="#fff" stop-opacity=".38"/><stop offset="1" stop-color="#fff" stop-opacity=".1"/></linearGradient>
  </defs>
  <rect width="1200" height="760" fill="url(#bg)"/>
  <rect x="145" y="250" width="910" height="240" rx="35" fill="#0f0c0a" stroke="#d4874d" stroke-width="4"/>
  <rect x="185" y="298" width="830" height="96" rx="18" fill="url(#film)"/>
  <g transform="translate(215 323)">
    <circle cx="35" cy="24" r="22" fill="#D4874D"/><rect x="95" y="5" width="96" height="38" rx="12" fill="#f6d5b8"/><path d="M245 44 L290 0 L335 44Z" fill="#d4874d"/><circle cx="415" cy="24" r="22" fill="#f6d5b8"/><rect x="485" y="5" width="96" height="38" rx="12" fill="#D4874D"/><path d="M638 44 L683 0 L728 44Z" fill="#f6d5b8"/>
  </g>
  <g transform="translate(365 484)">
    <rect x="0" y="0" width="470" height="110" rx="55" fill="#d9d2c6"/>
    <rect x="18" y="18" width="434" height="74" rx="37" fill="#0a0807"/>
    <text x="90" y="65" fill="#f5eee5" font-family="Georgia, serif" font-size="42" letter-spacing="9">LIGNA</text>
  </g>
  <path d="M240 205 C410 155, 530 190, 695 150 S940 120, 1100 180" stroke="#d4874d" stroke-width="3" fill="none" opacity=".55"/>
  <text x="88" y="95" fill="#F5EEE5" font-family="Georgia, serif" font-size="46" letter-spacing="3">Impresión UV DTF</text>
  <text x="90" y="145" fill="#D4874D" font-family="Montserrat, Arial" font-size="22" letter-spacing="5">COLOR · ADHERENCIA · OBJETOS</text>
</svg>
