<svg xmlns="http://www.w3.org/2000/svg" viewBox="0 0 1200 760" role="img" aria-label="Sección de capas de tinta formando un relieve táctil con luz rasante">
  <defs>
    <linearGradient id="rlBg" x1="0" y1="0" x2="1" y2="1"><stop stop-color="#080807"/><stop offset="1" stop-color="#151311"/></linearGradient>
    <linearGradient id="rlLit" x1="0" y1="0" x2="1" y2="0"><stop stop-color="#e7d8c4"/><stop offset=".5" stop-color="#b87333"/><stop offset="1" stop-color="#8a5a2e"/></linearGradient>
    <linearGradient id="rlRake" x1="0" y1="0" x2="1" y2="1"><stop stop-color="#f7f0e6" stop-opacity=".28"/><stop offset="1" stop-color="#f7f0e6" stop-opacity="0"/></linearGradient>
  </defs>
  <rect width="1200" height="760" fill="url(#rlBg)"/>
  <path d="M0 0 L520 0 L200 760 L0 760 Z" fill="url(#rlRake)"/>
  <rect x="120" y="612" width="960" height="58" rx="16" fill="#1d1a16" stroke="#b87333" stroke-opacity=".38" stroke-width="2"/>
  <g>
    <rect x="212" y="560" width="776" height="52" rx="10" fill="url(#rlLit)" opacity=".34"/>
    <rect x="286" y="510" width="628" height="50" rx="9" fill="url(#rlLit)" opacity=".52"/>
    <rect x="360" y="462" width="480" height="48" rx="8" fill="url(#rlLit)" opacity=".7"/>
    <rect x="436" y="416" width="328" height="46" rx="7" fill="url(#rlLit)" opacity=".86"/>
    <rect x="512" y="372" width="176" height="44" rx="6" fill="url(#rlLit)"/>
  </g>
  <g stroke="#f7f0e6" stroke-opacity=".5" stroke-width="2" fill="none">
    <path d="M212 560 H988 M286 510 H914 M360 462 H840 M436 416 H764 M512 372 H688"/>
  </g>
  <g stroke="#e7d8c4" stroke-width="2" fill="none" opacity=".8">
    <path d="M1046 372 L1046 612"/>
    <path d="M1032 372 H1060 M1032 612 H1060"/>
  </g>
  <g fill="none" stroke="#b87333" stroke-width="3" opacity=".9">
    <path d="M150 300 C260 250, 330 350, 440 300 S620 250, 730 300"/>
  </g>
  <g fill="none" stroke="#e7d8c4" stroke-width="2" opacity=".45">
    <path d="M150 336 C260 286, 330 386, 440 336 S620 286, 730 336"/>
    <path d="M150 264 C260 214, 330 314, 440 264 S620 214, 730 264"/>
  </g>
</svg>
